# xmcd
#
# Track frame offsets: 
#        150
#        20175
#        41475
#        63825
#        81825
#        104550
#        124200
#        139950
#        160625
#        182275
#
# Disc length: 2709 seconds
#
# Revision: 7
# Processed by: cddbd v1.5.2PL0 Copyright (c) Steve Scherf et al.
# Submitted via: ExactAudioCopy v1.1
#
DISCID=820a930a
DTITLE=Strangeways - Native Sons [258 579]
DYEAR=1987
DGENRE=Hard Rock
TTITLE0=Dance With Somebody
TTITLE1=Only A Fool
TTITLE2=So Far Away
TTITLE3=Where Do We Go From Here?
TTITLE4=Goodnight L.A.
TTITLE5=Empty Streets
TTITLE6=Stand Up And Shout
TTITLE7=Shake The Seven
TTITLE8=Never Going To Lose It
TTITLE9=Face To Face
EXTD=
EXTT0=
EXTT1=
EXTT2=
EXTT3=
EXTT4=
EXTT5=
EXTT6=
EXTT7=
EXTT8=
EXTT9=
PLAYORDER=
